<svg width="19.499023" height="23.999512" viewBox="0 0 19.499 23.9995" fill="none" xmlns="http://www.w3.org/2000/svg" xmlns:xlink="http://www.w3.org/1999/xlink">
	<desc>
			Created with Pixso.
	</desc>
	<defs/>
	<path id="Vector" d="M10.0759 0C3.49707 0.000976562 0 4.21606 0 8.81201C0 10.9431 1.19092 13.6021 3.0979 14.4451C3.64209 14.6899 3.57007 14.3911 4.03809 12.6011C4.07495 12.4519 4.05591 12.323 3.93604 12.1841C1.20996 9.03101 3.40405 2.54907 9.68701 2.54907C18.78 2.54907 17.0811 15.1311 11.269 15.1311C9.771 15.1311 8.65503 13.9551 9.00806 12.5C9.43604 10.7671 10.2739 8.90405 10.2739 7.65503C10.2739 4.50708 5.58398 4.97412 5.58398 9.14502C5.58398 10.4341 6.04004 11.304 6.04004 11.304C6.04004 11.304 4.53101 17.3999 4.25098 18.5391C3.7771 20.467 4.31494 23.5879 4.36206 23.8569C4.39111 24.0049 4.55688 24.052 4.6499 23.9299C4.79907 23.7351 6.62305 21.1331 7.13403 19.252C7.32007 18.5669 8.08301 15.7871 8.08301 15.7871C8.58594 16.6951 10.0359 17.4551 11.5811 17.4551C16.177 17.4551 19.499 13.415 19.499 8.4021C19.4829 3.59595 15.3701 0 10.0759 0L10.0759 0Z" fill="#FFFFFF" fill-opacity="1.000000" fill-rule="nonzero"/>
</svg>
