<svg width="24.000000" height="24.000000" viewBox="0 0 24 24" fill="none" xmlns="http://www.w3.org/2000/svg" xmlns:xlink="http://www.w3.org/1999/xlink">
	<desc>
			Created with Pixso.
	</desc>
	<defs>
		<clipPath id="clip2_14">
			<rect id="instagram" width="24.000000" height="24.000000" fill="white" fill-opacity="0"/>
		</clipPath>
	</defs>
	<rect id="instagram" width="24.000000" height="24.000000" fill="#FFFFFF" fill-opacity="0"/>
	<g clip-path="url(#clip2_14)">
		<path id="Vector" d="M23.9766 7.05615C23.9204 5.78076 23.7141 4.90405 23.4187 4.14453C23.114 3.33813 22.6453 2.61621 22.031 2.01611C21.4307 1.40649 20.7041 0.932861 19.907 0.633057C19.1431 0.337646 18.2708 0.131348 16.9956 0.0751953C15.7109 0.0141602 15.303 0 12.0447 0C8.78613 0 8.37817 0.0141602 7.09839 0.0703125C5.823 0.126465 4.94629 0.333008 4.18701 0.628174C3.38037 0.932861 2.65845 1.40186 2.05835 2.01611C1.44873 2.61621 0.975342 3.34277 0.675293 4.13989C0.379883 4.90405 0.173584 5.77612 0.117432 7.05127C0.0563965 8.33594 0.0422363 8.7439 0.0422363 12.0024C0.0422363 15.2607 0.0563965 15.6687 0.112549 16.9487C0.168701 18.2239 0.375244 19.1006 0.670654 19.8601C0.975342 20.6665 1.44873 21.3884 2.05835 21.9888C2.65845 22.5981 3.38501 23.0718 4.18213 23.3718C4.94629 23.6672 5.81836 23.8733 7.09375 23.9297C8.37354 23.9861 8.78149 24 12.04 24C15.2983 24 15.7063 23.9861 16.9863 23.9297C18.2615 23.8733 19.1382 23.6672 19.8977 23.3718C21.5105 22.748 22.7859 21.4729 23.4094 19.8601C23.7046 19.0959 23.9111 18.2239 23.9673 16.9487C24.0234 15.6687 24.0376 15.2607 24.0376 12.0024C24.0376 8.7439 24.0327 8.33594 23.9766 7.05615ZM21.8154 16.8547C21.7637 18.0269 21.5669 18.6599 21.4028 19.0818C20.9995 20.1274 20.1697 20.9573 19.124 21.3606C18.7021 21.5247 18.0647 21.7214 16.897 21.7729C15.6311 21.8293 15.2515 21.8433 12.0493 21.8433C8.84717 21.8433 8.46265 21.8293 7.20142 21.7729C6.0293 21.7214 5.39648 21.5247 4.97437 21.3606C4.4541 21.1682 3.98047 20.8635 3.59619 20.4648C3.19751 20.0757 2.89282 19.6069 2.70044 19.0867C2.53638 18.6646 2.3396 18.0269 2.28809 16.8596C2.23169 15.5938 2.21777 15.2139 2.21777 12.0117C2.21777 8.80957 2.23169 8.42505 2.28809 7.16382C2.3396 5.99194 2.53638 5.35889 2.70044 4.93701C2.89282 4.4165 3.19751 3.94312 3.60083 3.55835C3.98975 3.15991 4.45874 2.85522 4.97925 2.66309C5.40112 2.49902 6.03882 2.302 7.20605 2.25049C8.47192 2.19434 8.85181 2.18018 12.054 2.18018C15.261 2.18018 15.6406 2.19434 16.9019 2.25049C18.074 2.302 18.7068 2.49902 19.1289 2.66309C19.6492 2.85522 20.1228 3.15991 20.5071 3.55835C20.9058 3.94751 21.2104 4.4165 21.4028 4.93701C21.5669 5.35889 21.7637 5.99634 21.8154 7.16382C21.8716 8.42969 21.8857 8.80957 21.8857 12.0117C21.8857 15.2139 21.8716 15.5889 21.8154 16.8547Z" fill="#FFFFFF" fill-opacity="1.000000" fill-rule="nonzero"/>
		<path id="Vector" d="M12.0444 5.83716C8.64062 5.83716 5.87915 8.59863 5.87915 12.0024C5.87915 15.4062 8.64062 18.1677 12.0444 18.1677C15.4482 18.1677 18.2097 15.4062 18.2097 12.0024C18.2097 8.59863 15.4482 5.83716 12.0444 5.83716ZM12.0444 16.0017C9.83618 16.0017 8.04517 14.2107 8.04517 12.0024C8.04517 9.79419 9.83618 8.00317 12.0444 8.00317C14.2527 8.00317 16.0437 9.79419 16.0437 12.0024C16.0437 14.2107 14.2527 16.0017 12.0444 16.0017Z" fill="#FFFFFF" fill-opacity="1.000000" fill-rule="nonzero"/>
		<path id="Vector" d="M19.8931 5.59302C19.8931 6.38794 19.2485 7.03247 18.4534 7.03247C17.6587 7.03247 17.0142 6.38794 17.0142 5.59302C17.0142 4.7981 17.6587 4.15381 18.4534 4.15381C19.2485 4.15381 19.8931 4.7981 19.8931 5.59302Z" fill="#FFFFFF" fill-opacity="1.000000" fill-rule="nonzero"/>
	</g>
</svg>
